<svg width="26" height="26" viewBox="0 0 26 26" fill="none" xmlns="http://www.w3.org/2000/svg">
<path d="M13.223 0.336914C6.21244 0.336914 0.508789 6.04057 0.508789 13.0511C0.508789 20.0616 6.21244 25.7653 13.223 25.7653C20.2335 25.7653 25.9372 20.0616 25.9372 13.0511C25.9372 6.04057 20.2335 0.336914 13.223 0.336914ZM18.113 14.0291H14.201V17.9412C14.201 18.2006 14.0979 18.4493 13.9145 18.6327C13.7311 18.8161 13.4824 18.9192 13.223 18.9192C12.9636 18.9192 12.7148 18.8161 12.5314 18.6327C12.348 18.4493 12.245 18.2006 12.245 17.9412V14.0291H8.3329C8.07352 14.0291 7.82475 13.9261 7.64134 13.7427C7.45793 13.5592 7.35489 13.3105 7.35489 13.0511C7.35489 12.7917 7.45793 12.5429 7.64134 12.3595C7.82475 12.1761 8.07352 12.0731 8.3329 12.0731H12.245V8.16103C12.245 7.90164 12.348 7.65288 12.5314 7.46947C12.7148 7.28605 12.9636 7.18301 13.223 7.18301C13.4824 7.18301 13.7311 7.28605 13.9145 7.46947C14.0979 7.65288 14.201 7.90164 14.201 8.16103V12.0731H18.113C18.3724 12.0731 18.6212 12.1761 18.8046 12.3595C18.988 12.5429 19.0911 12.7917 19.0911 13.0511C19.0911 13.3105 18.988 13.5592 18.8046 13.7427C18.6212 13.9261 18.3724 14.0291 18.113 14.0291Z" fill="#0332e1"/>
</svg>
