<svg width="11" height="11" viewBox="0 0 11 11" fill="none" xmlns="http://www.w3.org/2000/svg">
<path d="M5.5 11C8.53267 11 11 8.53267 11 5.5C11 2.46733 8.53267 7.99241e-07 5.5 6.09422e-07C2.46733 4.19603e-07 8.82103e-08 2.46733 -2.82095e-07 5.5C-6.524e-07 8.53267 2.46733 11 5.5 11ZM2.96154 5.07692L5.07692 5.07692L5.07692 2.96154L5.92308 2.96154L5.92308 5.07692L8.03846 5.07692L8.03846 5.92308L5.92308 5.92308L5.92308 8.03846L5.07692 8.03846L5.07692 5.92308L2.96154 5.92308L2.96154 5.07692Z" fill="black"/>
</svg>
