<svg width="222" height="53" viewBox="0 0 222 53" fill="none" xmlns="http://www.w3.org/2000/svg">
<path d="M1.225 26.75C1.225 24.3467 1.76167 22.2 2.835 20.31C3.93167 18.3967 5.41333 16.915 7.28 15.865C9.17 14.7917 11.2817 14.255 13.615 14.255C16.345 14.255 18.7367 14.955 20.79 16.355C22.8433 17.755 24.2783 19.6917 25.095 22.165H19.46C18.9 20.9983 18.1067 20.1233 17.08 19.54C16.0767 18.9567 14.91 18.665 13.58 18.665C12.1567 18.665 10.885 19.0033 9.765 19.68C8.66833 20.3333 7.805 21.2667 7.175 22.48C6.56833 23.6933 6.265 25.1167 6.265 26.75C6.265 28.36 6.56833 29.7833 7.175 31.02C7.805 32.2333 8.66833 33.1783 9.765 33.855C10.885 34.5083 12.1567 34.835 13.58 34.835C14.91 34.835 16.0767 34.5433 17.08 33.96C18.1067 33.3533 18.9 32.4667 19.46 31.3H25.095C24.2783 33.7967 22.8433 35.745 20.79 37.145C18.76 38.5217 16.3683 39.21 13.615 39.21C11.2817 39.21 9.17 38.685 7.28 37.635C5.41333 36.5617 3.93167 35.08 2.835 33.19C1.76167 31.3 1.225 29.1533 1.225 26.75ZM25.5702 29.235C25.5702 27.275 25.9552 25.5367 26.7252 24.02C27.5186 22.5033 28.5802 21.3367 29.9102 20.52C31.2636 19.7033 32.7686 19.295 34.4252 19.295C35.8719 19.295 37.1319 19.5867 38.2052 20.17C39.3019 20.7533 40.1769 21.4883 40.8302 22.375V19.61H45.7652V39H40.8302V36.165C40.2002 37.075 39.3252 37.8333 38.2052 38.44C37.1086 39.0233 35.8369 39.315 34.3902 39.315C32.7569 39.315 31.2636 38.895 29.9102 38.055C28.5802 37.215 27.5186 36.0367 26.7252 34.52C25.9552 32.98 25.5702 31.2183 25.5702 29.235ZM40.8302 29.305C40.8302 28.115 40.5969 27.1 40.1302 26.26C39.6636 25.3967 39.0336 24.7433 38.2402 24.3C37.4469 23.8333 36.5952 23.6 35.6852 23.6C34.7752 23.6 33.9352 23.8217 33.1652 24.265C32.3952 24.7083 31.7652 25.3617 31.2752 26.225C30.8086 27.065 30.5752 28.0683 30.5752 29.235C30.5752 30.4017 30.8086 31.4283 31.2752 32.315C31.7652 33.1783 32.3952 33.8433 33.1652 34.31C33.9586 34.7767 34.7986 35.01 35.6852 35.01C36.5952 35.01 37.4469 34.7883 38.2402 34.345C39.0336 33.8783 39.6636 33.225 40.1302 32.385C40.5969 31.5217 40.8302 30.495 40.8302 29.305ZM55.5209 39.315C53.9343 39.315 52.5109 39.035 51.2509 38.475C49.9909 37.8917 48.9876 37.11 48.2409 36.13C47.5176 35.15 47.1209 34.065 47.0509 32.875H51.9859C52.0793 33.6217 52.4409 34.24 53.0709 34.73C53.7243 35.22 54.5293 35.465 55.4859 35.465C56.4193 35.465 57.1426 35.2783 57.6559 34.905C58.1926 34.5317 58.4609 34.0533 58.4609 33.47C58.4609 32.84 58.1343 32.3733 57.4809 32.07C56.8509 31.7433 55.8359 31.3933 54.4359 31.02C52.9893 30.67 51.7993 30.3083 50.8659 29.935C49.9559 29.5617 49.1626 28.99 48.4859 28.22C47.8326 27.45 47.5059 26.4117 47.5059 25.105C47.5059 24.0317 47.8093 23.0517 48.4159 22.165C49.0459 21.2783 49.9326 20.5783 51.0759 20.065C52.2426 19.5517 53.6076 19.295 55.1709 19.295C57.4809 19.295 59.3243 19.8783 60.7009 21.045C62.0776 22.1883 62.8359 23.74 62.9759 25.7H58.2859C58.2159 24.93 57.8893 24.3233 57.3059 23.88C56.7459 23.4133 55.9876 23.18 55.0309 23.18C54.1443 23.18 53.4559 23.3433 52.9659 23.67C52.4993 23.9967 52.2659 24.4517 52.2659 25.035C52.2659 25.6883 52.5926 26.19 53.2459 26.54C53.8993 26.8667 54.9143 27.205 56.2909 27.555C57.6909 27.905 58.8459 28.2667 59.7559 28.64C60.6659 29.0133 61.4476 29.5967 62.1009 30.39C62.7776 31.16 63.1276 32.1867 63.1509 33.47C63.1509 34.59 62.8359 35.5933 62.2059 36.48C61.5993 37.3667 60.7126 38.0667 59.5459 38.58C58.4026 39.07 57.0609 39.315 55.5209 39.315ZM75.6432 19.33C77.1132 19.33 78.4199 19.6567 79.5632 20.31C80.7065 20.94 81.5932 21.885 82.2232 23.145C82.8765 24.3817 83.2032 25.875 83.2032 27.625V39H78.3032V28.29C78.3032 26.75 77.9182 25.5717 77.1482 24.755C76.3782 23.915 75.3282 23.495 73.9982 23.495C72.6449 23.495 71.5715 23.915 70.7782 24.755C70.0082 25.5717 69.6232 26.75 69.6232 28.29V39H64.7232V13.1H69.6232V22.025C70.2532 21.185 71.0932 20.5317 72.1432 20.065C73.1932 19.575 74.3599 19.33 75.6432 19.33ZM87.8978 17.3C87.0345 17.3 86.3112 17.0317 85.7278 16.495C85.1678 15.935 84.8878 15.2467 84.8878 14.43C84.8878 13.6133 85.1678 12.9367 85.7278 12.4C86.3112 11.84 87.0345 11.56 87.8978 11.56C88.7612 11.56 89.4728 11.84 90.0328 12.4C90.6162 12.9367 90.9078 13.6133 90.9078 14.43C90.9078 15.2467 90.6162 15.935 90.0328 16.495C89.4728 17.0317 88.7612 17.3 87.8978 17.3ZM90.3128 19.61V39H85.4128V19.61H90.3128ZM110.729 28.885C110.729 29.585 110.682 30.215 110.589 30.775H96.4141C96.5307 32.175 97.0207 33.2717 97.8841 34.065C98.7474 34.8583 99.8091 35.255 101.069 35.255C102.889 35.255 104.184 34.4733 104.954 32.91H110.239C109.679 34.7767 108.606 36.3167 107.019 37.53C105.432 38.72 103.484 39.315 101.174 39.315C99.3074 39.315 97.6274 38.9067 96.1341 38.09C94.6641 37.25 93.5091 36.0717 92.6691 34.555C91.8524 33.0383 91.4441 31.2883 91.4441 29.305C91.4441 27.2983 91.8524 25.5367 92.6691 24.02C93.4857 22.5033 94.6291 21.3367 96.0991 20.52C97.5691 19.7033 99.2607 19.295 101.174 19.295C103.017 19.295 104.662 19.6917 106.109 20.485C107.579 21.2783 108.711 22.41 109.504 23.88C110.321 25.3267 110.729 26.995 110.729 28.885ZM105.654 27.485C105.631 26.225 105.176 25.2217 104.289 24.475C103.402 23.705 102.317 23.32 101.034 23.32C99.8207 23.32 98.7941 23.6933 97.9541 24.44C97.1374 25.1633 96.6357 26.1783 96.4491 27.485H105.654ZM116.756 22.62C117.386 21.5933 118.202 20.7883 119.206 20.205C120.232 19.6217 121.399 19.33 122.706 19.33V24.475H121.411C119.871 24.475 118.704 24.8367 117.911 25.56C117.141 26.2833 116.756 27.5433 116.756 29.34V39H111.856V19.61H116.756V22.62Z" fill="#101014"/>
<path d="M143.656 26.47C145.033 26.7267 146.164 27.415 147.051 28.535C147.938 29.655 148.381 30.9383 148.381 32.385C148.381 33.6917 148.054 34.8467 147.401 35.85C146.771 36.83 145.849 37.6 144.636 38.16C143.423 38.72 141.988 39 140.331 39H129.796V14.57H139.876C141.533 14.57 142.956 14.8383 144.146 15.375C145.359 15.9117 146.269 16.6583 146.876 17.615C147.506 18.5717 147.821 19.6567 147.821 20.87C147.821 22.2933 147.436 23.4833 146.666 24.44C145.919 25.3967 144.916 26.0733 143.656 26.47ZM134.696 24.65H139.176C140.343 24.65 141.241 24.3933 141.871 23.88C142.501 23.3433 142.816 22.585 142.816 21.605C142.816 20.625 142.501 19.8667 141.871 19.33C141.241 18.7933 140.343 18.525 139.176 18.525H134.696V24.65ZM139.631 35.01C140.821 35.01 141.743 34.73 142.396 34.17C143.073 33.61 143.411 32.8167 143.411 31.79C143.411 30.74 143.061 29.9233 142.361 29.34C141.661 28.7333 140.716 28.43 139.526 28.43H134.696V35.01H139.631ZM155.086 22.62C155.716 21.5933 156.533 20.7883 157.536 20.205C158.563 19.6217 159.729 19.33 161.036 19.33V24.475H159.741C158.201 24.475 157.034 24.8367 156.241 25.56C155.471 26.2833 155.086 27.5433 155.086 29.34V39H150.186V19.61H155.086V22.62ZM180.261 28.885C180.261 29.585 180.215 30.215 180.121 30.775H165.946C166.063 32.175 166.553 33.2717 167.416 34.065C168.28 34.8583 169.341 35.255 170.601 35.255C172.421 35.255 173.716 34.4733 174.486 32.91H179.771C179.211 34.7767 178.138 36.3167 176.551 37.53C174.965 38.72 173.016 39.315 170.706 39.315C168.84 39.315 167.16 38.9067 165.666 38.09C164.196 37.25 163.041 36.0717 162.201 34.555C161.385 33.0383 160.976 31.2883 160.976 29.305C160.976 27.2983 161.385 25.5367 162.201 24.02C163.018 22.5033 164.161 21.3367 165.631 20.52C167.101 19.7033 168.793 19.295 170.706 19.295C172.55 19.295 174.195 19.6917 175.641 20.485C177.111 21.2783 178.243 22.41 179.036 23.88C179.853 25.3267 180.261 26.995 180.261 28.885ZM175.186 27.485C175.163 26.225 174.708 25.2217 173.821 24.475C172.935 23.705 171.85 23.32 170.566 23.32C169.353 23.32 168.326 23.6933 167.486 24.44C166.67 25.1633 166.168 26.1783 165.981 27.485H175.186ZM180.478 29.235C180.478 27.275 180.863 25.5367 181.633 24.02C182.426 22.5033 183.488 21.3367 184.818 20.52C186.171 19.7033 187.676 19.295 189.333 19.295C190.78 19.295 192.04 19.5867 193.113 20.17C194.21 20.7533 195.085 21.4883 195.738 22.375V19.61H200.673V39H195.738V36.165C195.108 37.075 194.233 37.8333 193.113 38.44C192.016 39.0233 190.745 39.315 189.298 39.315C187.665 39.315 186.171 38.895 184.818 38.055C183.488 37.215 182.426 36.0367 181.633 34.52C180.863 32.98 180.478 31.2183 180.478 29.235ZM195.738 29.305C195.738 28.115 195.505 27.1 195.038 26.26C194.571 25.3967 193.941 24.7433 193.148 24.3C192.355 23.8333 191.503 23.6 190.593 23.6C189.683 23.6 188.843 23.8217 188.073 24.265C187.303 24.7083 186.673 25.3617 186.183 26.225C185.716 27.065 185.483 28.0683 185.483 29.235C185.483 30.4017 185.716 31.4283 186.183 32.315C186.673 33.1783 187.303 33.8433 188.073 34.31C188.866 34.7767 189.706 35.01 190.593 35.01C191.503 35.01 192.355 34.7883 193.148 34.345C193.941 33.8783 194.571 33.225 195.038 32.385C195.505 31.5217 195.738 30.495 195.738 29.305ZM214.839 39L208.259 30.74V39H203.359V13.1H208.259V27.835L214.769 19.61H221.139L212.599 29.34L221.209 39H214.839Z" fill="#0332E1"/>
<path d="M115.25 31.2012C115.25 26.8255 118.943 23.25 123.5 23.25C128.057 23.25 131.75 26.8255 131.75 31.2012C131.75 35.5768 128.057 39.1523 123.5 39.1523C118.943 39.1523 115.25 35.5768 115.25 31.2012ZM122.174 34.3506C122.345 34.1862 122.442 33.9612 122.442 33.7246V28.6777C122.442 28.4412 122.345 28.2162 122.174 28.0517C122.004 27.8876 121.775 27.7969 121.538 27.7969C121.302 27.7969 121.073 27.8876 120.903 28.0517C120.732 28.2162 120.635 28.4412 120.635 28.6777V33.7246C120.635 33.9612 120.732 34.1862 120.903 34.3506C121.073 34.5148 121.302 34.6055 121.538 34.6055C121.775 34.6055 122.004 34.5148 122.174 34.3506ZM126.097 34.3506C126.268 34.1862 126.365 33.9612 126.365 33.7246V28.6777C126.365 28.4412 126.268 28.2162 126.097 28.0517C125.927 27.8876 125.698 27.7969 125.462 27.7969C125.225 27.7969 124.996 27.8876 124.826 28.0517C124.655 28.2162 124.558 28.4412 124.558 28.6777V33.7246C124.558 33.9612 124.655 34.1862 124.826 34.3506C124.996 34.5148 125.225 34.6055 125.462 34.6055C125.698 34.6055 125.927 34.5148 126.097 34.3506Z" fill="#0332E1" stroke="#F7F6F7" stroke-width="0.5"/>
</svg>
