<svg width="13" height="13" viewBox="0 0 13 13" fill="none" xmlns="http://www.w3.org/2000/svg">
<path d="M11.8467 9.99624L9.57979 7.72929C10.1256 7.00272 10.4202 6.11833 10.4192 5.2096C10.4192 2.88844 8.53076 1 6.2096 1C3.88844 1 2 2.88844 2 5.2096C2 7.53076 3.88844 9.4192 6.2096 9.4192C7.11833 9.42019 8.00272 9.12557 8.72929 8.57979L10.9962 10.8467C11.111 10.9493 11.2607 11.0041 11.4145 10.9998C11.5684 10.9955 11.7147 10.9324 11.8236 10.8236C11.9324 10.7147 11.9955 10.5684 11.9998 10.4145C12.0041 10.2607 11.9493 10.111 11.8467 9.99624ZM3.20274 5.2096C3.20274 4.6149 3.37909 4.03356 3.70949 3.53908C4.03989 3.0446 4.50949 2.65921 5.05893 2.43163C5.60836 2.20404 6.21294 2.1445 6.79621 2.26052C7.37948 2.37654 7.91525 2.66291 8.33577 3.08343C8.75629 3.50395 9.04266 4.03972 9.15868 4.62299C9.2747 5.20626 9.21516 5.81084 8.98757 6.36027C8.75999 6.90971 8.3746 7.37931 7.88012 7.70971C7.38565 8.04011 6.8043 8.21646 6.2096 8.21646C5.41243 8.2155 4.64818 7.8984 4.08449 7.33471C3.5208 6.77103 3.2037 6.00677 3.20274 5.2096Z" fill="#545454"/>
</svg>
