<svg width="14" height="17" viewBox="0 0 14 17" fill="none" xmlns="http://www.w3.org/2000/svg">
<path d="M1.71997 3.00305L2.43212 14.4184C2.46594 15.078 2.94486 15.56 3.57155 15.56H10.1233C10.7525 15.56 11.2225 15.078 11.2627 14.4184L11.9749 3.00305" stroke="#3E3E3E" stroke-opacity="0.8" stroke-linecap="round" stroke-linejoin="round"/>
<path d="M0.580566 3.00305H13.1144Z" fill="black"/>
<path d="M0.580566 3.00305H13.1144" stroke="#3E3E3E" stroke-opacity="0.8" stroke-miterlimit="10" stroke-linecap="round"/>
<path d="M4.56855 3.00305V1.57613C4.56822 1.4636 4.5901 1.35212 4.63293 1.2481C4.67576 1.14408 4.7387 1.04957 4.81812 0.970001C4.89754 0.890434 4.99187 0.827383 5.09571 0.784474C5.19954 0.741565 5.31081 0.719645 5.42313 0.719974H8.27171C8.38403 0.719645 8.49531 0.741565 8.59914 0.784474C8.70297 0.827383 8.79731 0.890434 8.87673 0.970001C8.95615 1.04957 9.01908 1.14408 9.06191 1.2481C9.10474 1.35212 9.12662 1.4636 9.12629 1.57613V3.00305M6.84742 5.28613V13.2769M4.28369 5.28613L4.56855 13.2769M9.41115 5.28613L9.12629 13.2769" stroke="#3E3E3E" stroke-opacity="0.8" stroke-linecap="round" stroke-linejoin="round"/>
</svg>
